<?xml version="1.0" encoding="utf-8" standalone="no"?>
<!DOCTYPE svg PUBLIC "-//W3C//DTD SVG 1.1//EN"
  "http://www.w3.org/Graphics/SVG/1.1/DTD/svg11.dtd">
<svg xmlns:xlink="http://www.w3.org/1999/xlink" width="268.507031pt" height="255.719844pt" viewBox="0 0 268.507031 255.719844" xmlns="http://www.w3.org/2000/svg" version="1.1">
 <metadata>
  <rdf:RDF xmlns:dc="http://purl.org/dc/elements/1.1/" xmlns:cc="http://creativecommons.org/ns#" xmlns:rdf="http://www.w3.org/1999/02/22-rdf-syntax-ns#">
   <cc:Work>
    <dc:type rdf:resource="http://purl.org/dc/dcmitype/StillImage"/>
    <dc:date>2025-01-08T16:17:29.177771</dc:date>
    <dc:format>image/svg+xml</dc:format>
    <dc:creator>
     <cc:Agent>
      <dc:title>Matplotlib v3.7.0, https://matplotlib.org/</dc:title>
     </cc:Agent>
    </dc:creator>
   </cc:Work>
  </rdf:RDF>
 </metadata>
 <defs>
  <style type="text/css">*{stroke-linejoin: round; stroke-linecap: butt}</style>
 </defs>
 <g id="figure_1">
  <g id="patch_1">
   <path d="M 0 255.719844 
L 268.507031 255.719844 
L 268.507031 0 
L 0 0 
L 0 255.719844 
z
" style="fill: none"/>
  </g>
  <g id="axes_1">
   <g id="patch_2">
    <path d="M 38.107031 228.96 
L 261.307031 228.96 
L 261.307031 7.2 
L 38.107031 7.2 
L 38.107031 228.96 
z
" style="fill: none"/>
   </g>
   <g id="matplotlib.axis_1">
    <g id="xtick_1">
     <g id="text_1">
      <!-- 0.2 -->
      <g style="fill: #262626" transform="translate(74.425668 246.333594) scale(0.11 -0.11)">
       <defs>
        <path id="ArialMT-30" d="M 266 2259 
Q 266 3072 433 3567 
Q 600 4063 929 4331 
Q 1259 4600 1759 4600 
Q 2128 4600 2406 4451 
Q 2684 4303 2865 4023 
Q 3047 3744 3150 3342 
Q 3253 2941 3253 2259 
Q 3253 1453 3087 958 
Q 2922 463 2592 192 
Q 2263 -78 1759 -78 
Q 1097 -78 719 397 
Q 266 969 266 2259 
z
M 844 2259 
Q 844 1131 1108 757 
Q 1372 384 1759 384 
Q 2147 384 2411 759 
Q 2675 1134 2675 2259 
Q 2675 3391 2411 3762 
Q 2147 4134 1753 4134 
Q 1366 4134 1134 3806 
Q 844 3388 844 2259 
z
" transform="scale(0.015625)"/>
        <path id="ArialMT-2e" d="M 581 0 
L 581 641 
L 1222 641 
L 1222 0 
L 581 0 
z
" transform="scale(0.015625)"/>
        <path id="ArialMT-32" d="M 3222 541 
L 3222 0 
L 194 0 
Q 188 203 259 391 
Q 375 700 629 1000 
Q 884 1300 1366 1694 
Q 2113 2306 2375 2664 
Q 2638 3022 2638 3341 
Q 2638 3675 2398 3904 
Q 2159 4134 1775 4134 
Q 1369 4134 1125 3890 
Q 881 3647 878 3216 
L 300 3275 
Q 359 3922 746 4261 
Q 1134 4600 1788 4600 
Q 2447 4600 2831 4234 
Q 3216 3869 3216 3328 
Q 3216 3053 3103 2787 
Q 2991 2522 2730 2228 
Q 2469 1934 1863 1422 
Q 1356 997 1212 845 
Q 1069 694 975 541 
L 3222 541 
z
" transform="scale(0.015625)"/>
       </defs>
       <use xlink:href="#ArialMT-30"/>
       <use xlink:href="#ArialMT-2e" x="55.615234"/>
       <use xlink:href="#ArialMT-32" x="83.398438"/>
      </g>
     </g>
    </g>
    <g id="xtick_2">
     <g id="text_2">
      <!-- 0.4 -->
      <g style="fill: #262626" transform="translate(119.516577 246.333594) scale(0.11 -0.11)">
       <defs>
        <path id="ArialMT-34" d="M 2069 0 
L 2069 1097 
L 81 1097 
L 81 1613 
L 2172 4581 
L 2631 4581 
L 2631 1613 
L 3250 1613 
L 3250 1097 
L 2631 1097 
L 2631 0 
L 2069 0 
z
M 2069 1613 
L 2069 3678 
L 634 1613 
L 2069 1613 
z
" transform="scale(0.015625)"/>
       </defs>
       <use xlink:href="#ArialMT-30"/>
       <use xlink:href="#ArialMT-2e" x="55.615234"/>
       <use xlink:href="#ArialMT-34" x="83.398438"/>
      </g>
     </g>
    </g>
    <g id="xtick_3">
     <g id="text_3">
      <!-- 0.6 -->
      <g style="fill: #262626" transform="translate(164.607486 246.333594) scale(0.11 -0.11)">
       <defs>
        <path id="ArialMT-36" d="M 3184 3459 
L 2625 3416 
Q 2550 3747 2413 3897 
Q 2184 4138 1850 4138 
Q 1581 4138 1378 3988 
Q 1113 3794 959 3422 
Q 806 3050 800 2363 
Q 1003 2672 1297 2822 
Q 1591 2972 1913 2972 
Q 2475 2972 2870 2558 
Q 3266 2144 3266 1488 
Q 3266 1056 3080 686 
Q 2894 316 2569 119 
Q 2244 -78 1831 -78 
Q 1128 -78 684 439 
Q 241 956 241 2144 
Q 241 3472 731 4075 
Q 1159 4600 1884 4600 
Q 2425 4600 2770 4297 
Q 3116 3994 3184 3459 
z
M 888 1484 
Q 888 1194 1011 928 
Q 1134 663 1356 523 
Q 1578 384 1822 384 
Q 2178 384 2434 671 
Q 2691 959 2691 1453 
Q 2691 1928 2437 2201 
Q 2184 2475 1800 2475 
Q 1419 2475 1153 2201 
Q 888 1928 888 1484 
z
" transform="scale(0.015625)"/>
       </defs>
       <use xlink:href="#ArialMT-30"/>
       <use xlink:href="#ArialMT-2e" x="55.615234"/>
       <use xlink:href="#ArialMT-36" x="83.398438"/>
      </g>
     </g>
    </g>
    <g id="xtick_4">
     <g id="text_4">
      <!-- 0.8 -->
      <g style="fill: #262626" transform="translate(209.698395 246.333594) scale(0.11 -0.11)">
       <defs>
        <path id="ArialMT-38" d="M 1131 2484 
Q 781 2613 612 2850 
Q 444 3088 444 3419 
Q 444 3919 803 4259 
Q 1163 4600 1759 4600 
Q 2359 4600 2725 4251 
Q 3091 3903 3091 3403 
Q 3091 3084 2923 2848 
Q 2756 2613 2416 2484 
Q 2838 2347 3058 2040 
Q 3278 1734 3278 1309 
Q 3278 722 2862 322 
Q 2447 -78 1769 -78 
Q 1091 -78 675 323 
Q 259 725 259 1325 
Q 259 1772 486 2073 
Q 713 2375 1131 2484 
z
M 1019 3438 
Q 1019 3113 1228 2906 
Q 1438 2700 1772 2700 
Q 2097 2700 2305 2904 
Q 2513 3109 2513 3406 
Q 2513 3716 2298 3927 
Q 2084 4138 1766 4138 
Q 1444 4138 1231 3931 
Q 1019 3725 1019 3438 
z
M 838 1322 
Q 838 1081 952 856 
Q 1066 631 1291 507 
Q 1516 384 1775 384 
Q 2178 384 2440 643 
Q 2703 903 2703 1303 
Q 2703 1709 2433 1975 
Q 2163 2241 1756 2241 
Q 1359 2241 1098 1978 
Q 838 1716 838 1322 
z
" transform="scale(0.015625)"/>
       </defs>
       <use xlink:href="#ArialMT-30"/>
       <use xlink:href="#ArialMT-2e" x="55.615234"/>
       <use xlink:href="#ArialMT-38" x="83.398438"/>
      </g>
     </g>
    </g>
   </g>
   <g id="matplotlib.axis_2">
    <g id="ytick_1">
     <g id="text_5">
      <!-- 0.06 -->
      <g style="fill: #262626" transform="translate(7.2 209.216102) scale(0.11 -0.11)">
       <use xlink:href="#ArialMT-30"/>
       <use xlink:href="#ArialMT-2e" x="55.615234"/>
       <use xlink:href="#ArialMT-30" x="83.398438"/>
       <use xlink:href="#ArialMT-36" x="139.013672"/>
      </g>
     </g>
    </g>
    <g id="ytick_2">
     <g id="text_6">
      <!-- 0.08 -->
      <g style="fill: #262626" transform="translate(7.2 183.763374) scale(0.11 -0.11)">
       <use xlink:href="#ArialMT-30"/>
       <use xlink:href="#ArialMT-2e" x="55.615234"/>
       <use xlink:href="#ArialMT-30" x="83.398438"/>
       <use xlink:href="#ArialMT-38" x="139.013672"/>
      </g>
     </g>
    </g>
    <g id="ytick_3">
     <g id="text_7">
      <!-- 0.10 -->
      <g style="fill: #262626" transform="translate(7.2 158.310646) scale(0.11 -0.11)">
       <defs>
        <path id="ArialMT-31" d="M 2384 0 
L 1822 0 
L 1822 3584 
Q 1619 3391 1289 3197 
Q 959 3003 697 2906 
L 697 3450 
Q 1169 3672 1522 3987 
Q 1875 4303 2022 4600 
L 2384 4600 
L 2384 0 
z
" transform="scale(0.015625)"/>
       </defs>
       <use xlink:href="#ArialMT-30"/>
       <use xlink:href="#ArialMT-2e" x="55.615234"/>
       <use xlink:href="#ArialMT-31" x="83.398438"/>
       <use xlink:href="#ArialMT-30" x="139.013672"/>
      </g>
     </g>
    </g>
    <g id="ytick_4">
     <g id="text_8">
      <!-- 0.12 -->
      <g style="fill: #262626" transform="translate(7.2 132.857918) scale(0.11 -0.11)">
       <use xlink:href="#ArialMT-30"/>
       <use xlink:href="#ArialMT-2e" x="55.615234"/>
       <use xlink:href="#ArialMT-31" x="83.398438"/>
       <use xlink:href="#ArialMT-32" x="139.013672"/>
      </g>
     </g>
    </g>
    <g id="ytick_5">
     <g id="text_9">
      <!-- 0.14 -->
      <g style="fill: #262626" transform="translate(7.2 107.40519) scale(0.11 -0.11)">
       <use xlink:href="#ArialMT-30"/>
       <use xlink:href="#ArialMT-2e" x="55.615234"/>
       <use xlink:href="#ArialMT-31" x="83.398438"/>
       <use xlink:href="#ArialMT-34" x="139.013672"/>
      </g>
     </g>
    </g>
    <g id="ytick_6">
     <g id="text_10">
      <!-- 0.16 -->
      <g style="fill: #262626" transform="translate(7.2 81.952461) scale(0.11 -0.11)">
       <use xlink:href="#ArialMT-30"/>
       <use xlink:href="#ArialMT-2e" x="55.615234"/>
       <use xlink:href="#ArialMT-31" x="83.398438"/>
       <use xlink:href="#ArialMT-36" x="139.013672"/>
      </g>
     </g>
    </g>
    <g id="ytick_7">
     <g id="text_11">
      <!-- 0.18 -->
      <g style="fill: #262626" transform="translate(7.2 56.499733) scale(0.11 -0.11)">
       <use xlink:href="#ArialMT-30"/>
       <use xlink:href="#ArialMT-2e" x="55.615234"/>
       <use xlink:href="#ArialMT-31" x="83.398438"/>
       <use xlink:href="#ArialMT-38" x="139.013672"/>
      </g>
     </g>
    </g>
    <g id="ytick_8">
     <g id="text_12">
      <!-- 0.20 -->
      <g style="fill: #262626" transform="translate(7.2 31.047005) scale(0.11 -0.11)">
       <use xlink:href="#ArialMT-30"/>
       <use xlink:href="#ArialMT-2e" x="55.615234"/>
       <use xlink:href="#ArialMT-32" x="83.398438"/>
       <use xlink:href="#ArialMT-30" x="139.013672"/>
      </g>
     </g>
    </g>
   </g>
   <g id="PolyCollection_1">
    <defs>
     <path id="mdafa7719ce" d="M 48.252486 -212.622206 
L 48.252486 -186.641778 
L 70.79794 -91.048326 
L 93.343395 -79.971622 
L 115.888849 -36.839844 
L 138.434304 -49.080469 
L 160.979759 -48.303286 
L 183.525213 -64.818415 
L 206.070668 -106.591977 
L 228.616122 -91.415986 
L 251.161577 -108.235733 
L 251.161577 -217.923376 
L 251.161577 -217.923376 
L 228.616122 -120.581262 
L 206.070668 -113.726716 
L 183.525213 -106.328339 
L 160.979759 -57.082893 
L 138.434304 -61.822479 
L 115.888849 -70.665851 
L 93.343395 -91.631213 
L 70.79794 -111.588123 
L 48.252486 -212.622206 
z
" style="stroke: #3b528b; stroke-opacity: 0.5"/>
    </defs>
    <g clip-path="url(#p0c8f74dbfb)">
     <use xlink:href="#mdafa7719ce" x="0" y="255.719844" style="fill: #3b528b; fill-opacity: 0.5; stroke: #3b528b; stroke-opacity: 0.5"/>
    </g>
   </g>
   <g id="PolyCollection_2">
    <defs>
     <path id="m0f16521a36" d="M 48.252486 -182.045403 
L 48.252486 -139.062167 
L 70.79794 -88.416606 
L 93.343395 -70.472597 
L 115.888849 -54.382385 
L 138.434304 -53.693536 
L 160.979759 -57.821417 
L 183.525213 -59.06381 
L 206.070668 -77.256764 
L 228.616122 -101.438145 
L 251.161577 -183.047517 
L 251.161577 -238.439844 
L 251.161577 -238.439844 
L 228.616122 -123.833054 
L 206.070668 -94.061623 
L 183.525213 -77.242013 
L 160.979759 -80.969765 
L 138.434304 -72.041583 
L 115.888849 -72.290769 
L 93.343395 -91.409866 
L 70.79794 -109.931031 
L 48.252486 -182.045403 
z
" style="stroke: #21918c; stroke-opacity: 0.5"/>
    </defs>
    <g clip-path="url(#p0c8f74dbfb)">
     <use xlink:href="#m0f16521a36" x="0" y="255.719844" style="fill: #21918c; fill-opacity: 0.5; stroke: #21918c; stroke-opacity: 0.5"/>
    </g>
   </g>
   <g id="PolyCollection_3">
    <defs>
     <path id="m18b499c892" d="M 48.252486 -206.279541 
L 48.252486 -160.325188 
L 70.79794 -113.138823 
L 93.343395 -91.705451 
L 115.888849 -80.272405 
L 138.434304 -64.286525 
L 160.979759 -55.942438 
L 183.525213 -52.500698 
L 206.070668 -57.83203 
L 228.616122 -59.103209 
L 251.161577 -116.871337 
L 251.161577 -176.426752 
L 251.161577 -176.426752 
L 228.616122 -92.603772 
L 206.070668 -80.856955 
L 183.525213 -73.222344 
L 160.979759 -74.348877 
L 138.434304 -91.367815 
L 115.888849 -107.676495 
L 93.343395 -129.477699 
L 70.79794 -142.681537 
L 48.252486 -206.279541 
z
" style="stroke: #5ec962; stroke-opacity: 0.5"/>
    </defs>
    <g clip-path="url(#p0c8f74dbfb)">
     <use xlink:href="#m18b499c892" x="0" y="255.719844" style="fill: #5ec962; fill-opacity: 0.5; stroke: #5ec962; stroke-opacity: 0.5"/>
    </g>
   </g>
   <g id="line2d_1">
    <path d="M 48.252486 56.087852 
L 70.79794 154.40162 
L 93.343395 169.918427 
L 115.888849 201.966996 
L 138.434304 200.26837 
L 160.979759 203.026754 
L 183.525213 170.146467 
L 206.070668 145.560497 
L 228.616122 149.72122 
L 251.161577 92.640289 
" clip-path="url(#p0c8f74dbfb)" style="fill: none; stroke: #3b528b; stroke-width: 0.5; stroke-linecap: round"/>
   </g>
   <g id="line2d_2">
    <path d="M 48.252486 95.166059 
L 70.79794 156.546026 
L 93.343395 174.778612 
L 115.888849 192.383267 
L 138.434304 192.852285 
L 160.979759 186.324253 
L 183.525213 187.566932 
L 206.070668 170.06065 
L 228.616122 143.084244 
L 251.161577 44.976163 
" clip-path="url(#p0c8f74dbfb)" style="fill: none; stroke: #21918c; stroke-width: 0.5; stroke-linecap: round"/>
   </g>
   <g id="line2d_3">
    <path d="M 48.252486 72.417479 
L 70.79794 127.809663 
L 93.343395 145.128268 
L 115.888849 161.745394 
L 138.434304 177.892673 
L 160.979759 190.574186 
L 183.525213 192.858323 
L 206.070668 186.375351 
L 228.616122 179.866354 
L 251.161577 109.070799 
" clip-path="url(#p0c8f74dbfb)" style="fill: none; stroke: #5ec962; stroke-width: 0.5; stroke-linecap: round"/>
   </g>
   <g id="patch_3">
    <path d="M 38.107031 228.96 
L 38.107031 7.2 
" style="fill: none; stroke: #cccccc; stroke-width: 1.25; stroke-linejoin: miter; stroke-linecap: square"/>
   </g>
   <g id="patch_4">
    <path d="M 261.307031 228.96 
L 261.307031 7.2 
" style="fill: none; stroke: #cccccc; stroke-width: 1.25; stroke-linejoin: miter; stroke-linecap: square"/>
   </g>
   <g id="patch_5">
    <path d="M 38.107031 228.96 
L 261.307031 228.96 
" style="fill: none; stroke: #cccccc; stroke-width: 1.25; stroke-linejoin: miter; stroke-linecap: square"/>
   </g>
   <g id="patch_6">
    <path d="M 38.107031 7.2 
L 261.307031 7.2 
" style="fill: none; stroke: #cccccc; stroke-width: 1.25; stroke-linejoin: miter; stroke-linecap: square"/>
   </g>
  </g>
 </g>
 <defs>
  <clipPath id="p0c8f74dbfb">
   <rect x="38.107031" y="7.2" width="223.2" height="221.76"/>
  </clipPath>
 </defs>
</svg>
