<?xml version="1.0" encoding="utf-8" standalone="no"?>
<!DOCTYPE svg PUBLIC "-//W3C//DTD SVG 1.1//EN"
  "http://www.w3.org/Graphics/SVG/1.1/DTD/svg11.dtd">
<svg xmlns:xlink="http://www.w3.org/1999/xlink" width="417.542031pt" height="315.333094pt" viewBox="0 0 417.542031 315.333094" xmlns="http://www.w3.org/2000/svg" version="1.1">
 <metadata>
  <rdf:RDF xmlns:dc="http://purl.org/dc/elements/1.1/" xmlns:cc="http://creativecommons.org/ns#" xmlns:rdf="http://www.w3.org/1999/02/22-rdf-syntax-ns#">
   <cc:Work>
    <dc:type rdf:resource="http://purl.org/dc/dcmitype/StillImage"/>
    <dc:date>2025-01-08T16:15:24.097148</dc:date>
    <dc:format>image/svg+xml</dc:format>
    <dc:creator>
     <cc:Agent>
      <dc:title>Matplotlib v3.7.0, https://matplotlib.org/</dc:title>
     </cc:Agent>
    </dc:creator>
   </cc:Work>
  </rdf:RDF>
 </metadata>
 <defs>
  <style type="text/css">*{stroke-linejoin: round; stroke-linecap: butt}</style>
 </defs>
 <g id="figure_1">
  <g id="patch_1">
   <path d="M 0 315.333094 
L 417.542031 315.333094 
L 417.542031 0 
L 0 0 
L 0 315.333094 
z
" style="fill: none"/>
  </g>
  <g id="axes_1">
   <g id="patch_2">
    <path d="M 53.222031 273.312 
L 410.342031 273.312 
L 410.342031 7.2 
L 53.222031 7.2 
L 53.222031 273.312 
z
" style="fill: none"/>
   </g>
   <g id="matplotlib.axis_1">
    <g id="xtick_1">
     <g id="text_1">
      <!-- 0.0 -->
      <g style="fill: #262626" transform="translate(48.822542 290.685594) scale(0.11 -0.11)">
       <defs>
        <path id="ArialMT-30" d="M 266 2259 
Q 266 3072 433 3567 
Q 600 4063 929 4331 
Q 1259 4600 1759 4600 
Q 2128 4600 2406 4451 
Q 2684 4303 2865 4023 
Q 3047 3744 3150 3342 
Q 3253 2941 3253 2259 
Q 3253 1453 3087 958 
Q 2922 463 2592 192 
Q 2263 -78 1759 -78 
Q 1097 -78 719 397 
Q 266 969 266 2259 
z
M 844 2259 
Q 844 1131 1108 757 
Q 1372 384 1759 384 
Q 2147 384 2411 759 
Q 2675 1134 2675 2259 
Q 2675 3391 2411 3762 
Q 2147 4134 1753 4134 
Q 1366 4134 1134 3806 
Q 844 3388 844 2259 
z
" transform="scale(0.015625)"/>
        <path id="ArialMT-2e" d="M 581 0 
L 581 641 
L 1222 641 
L 1222 0 
L 581 0 
z
" transform="scale(0.015625)"/>
       </defs>
       <use xlink:href="#ArialMT-30"/>
       <use xlink:href="#ArialMT-2e" x="55.615234"/>
       <use xlink:href="#ArialMT-30" x="83.398438"/>
      </g>
     </g>
    </g>
    <g id="xtick_2">
     <g id="text_2">
      <!-- 2.5 -->
      <g style="fill: #262626" transform="translate(90.985178 290.685594) scale(0.11 -0.11)">
       <defs>
        <path id="ArialMT-32" d="M 3222 541 
L 3222 0 
L 194 0 
Q 188 203 259 391 
Q 375 700 629 1000 
Q 884 1300 1366 1694 
Q 2113 2306 2375 2664 
Q 2638 3022 2638 3341 
Q 2638 3675 2398 3904 
Q 2159 4134 1775 4134 
Q 1369 4134 1125 3890 
Q 881 3647 878 3216 
L 300 3275 
Q 359 3922 746 4261 
Q 1134 4600 1788 4600 
Q 2447 4600 2831 4234 
Q 3216 3869 3216 3328 
Q 3216 3053 3103 2787 
Q 2991 2522 2730 2228 
Q 2469 1934 1863 1422 
Q 1356 997 1212 845 
Q 1069 694 975 541 
L 3222 541 
z
" transform="scale(0.015625)"/>
        <path id="ArialMT-35" d="M 266 1200 
L 856 1250 
Q 922 819 1161 601 
Q 1400 384 1738 384 
Q 2144 384 2425 690 
Q 2706 997 2706 1503 
Q 2706 1984 2436 2262 
Q 2166 2541 1728 2541 
Q 1456 2541 1237 2417 
Q 1019 2294 894 2097 
L 366 2166 
L 809 4519 
L 3088 4519 
L 3088 3981 
L 1259 3981 
L 1013 2750 
Q 1425 3038 1878 3038 
Q 2478 3038 2890 2622 
Q 3303 2206 3303 1553 
Q 3303 931 2941 478 
Q 2500 -78 1738 -78 
Q 1113 -78 717 272 
Q 322 622 266 1200 
z
" transform="scale(0.015625)"/>
       </defs>
       <use xlink:href="#ArialMT-32"/>
       <use xlink:href="#ArialMT-2e" x="55.615234"/>
       <use xlink:href="#ArialMT-35" x="83.398438"/>
      </g>
     </g>
    </g>
    <g id="xtick_3">
     <g id="text_3">
      <!-- 5.0 -->
      <g style="fill: #262626" transform="translate(133.147814 290.685594) scale(0.11 -0.11)">
       <use xlink:href="#ArialMT-35"/>
       <use xlink:href="#ArialMT-2e" x="55.615234"/>
       <use xlink:href="#ArialMT-30" x="83.398438"/>
      </g>
     </g>
    </g>
    <g id="xtick_4">
     <g id="text_4">
      <!-- 7.5 -->
      <g style="fill: #262626" transform="translate(175.31045 290.685594) scale(0.11 -0.11)">
       <defs>
        <path id="ArialMT-37" d="M 303 3981 
L 303 4522 
L 3269 4522 
L 3269 4084 
Q 2831 3619 2401 2847 
Q 1972 2075 1738 1259 
Q 1569 684 1522 0 
L 944 0 
Q 953 541 1156 1306 
Q 1359 2072 1739 2783 
Q 2119 3494 2547 3981 
L 303 3981 
z
" transform="scale(0.015625)"/>
       </defs>
       <use xlink:href="#ArialMT-37"/>
       <use xlink:href="#ArialMT-2e" x="55.615234"/>
       <use xlink:href="#ArialMT-35" x="83.398438"/>
      </g>
     </g>
    </g>
    <g id="xtick_5">
     <g id="text_5">
      <!-- 10.0 -->
      <g style="fill: #262626" transform="translate(214.41457 290.685594) scale(0.11 -0.11)">
       <defs>
        <path id="ArialMT-31" d="M 2384 0 
L 1822 0 
L 1822 3584 
Q 1619 3391 1289 3197 
Q 959 3003 697 2906 
L 697 3450 
Q 1169 3672 1522 3987 
Q 1875 4303 2022 4600 
L 2384 4600 
L 2384 0 
z
" transform="scale(0.015625)"/>
       </defs>
       <use xlink:href="#ArialMT-31"/>
       <use xlink:href="#ArialMT-30" x="55.615234"/>
       <use xlink:href="#ArialMT-2e" x="111.230469"/>
       <use xlink:href="#ArialMT-30" x="139.013672"/>
      </g>
     </g>
    </g>
    <g id="xtick_6">
     <g id="text_6">
      <!-- 12.5 -->
      <g style="fill: #262626" transform="translate(256.577206 290.685594) scale(0.11 -0.11)">
       <use xlink:href="#ArialMT-31"/>
       <use xlink:href="#ArialMT-32" x="55.615234"/>
       <use xlink:href="#ArialMT-2e" x="111.230469"/>
       <use xlink:href="#ArialMT-35" x="139.013672"/>
      </g>
     </g>
    </g>
    <g id="xtick_7">
     <g id="text_7">
      <!-- 15.0 -->
      <g style="fill: #262626" transform="translate(298.739842 290.685594) scale(0.11 -0.11)">
       <use xlink:href="#ArialMT-31"/>
       <use xlink:href="#ArialMT-35" x="55.615234"/>
       <use xlink:href="#ArialMT-2e" x="111.230469"/>
       <use xlink:href="#ArialMT-30" x="139.013672"/>
      </g>
     </g>
    </g>
    <g id="xtick_8">
     <g id="text_8">
      <!-- 17.5 -->
      <g style="fill: #262626" transform="translate(340.902478 290.685594) scale(0.11 -0.11)">
       <use xlink:href="#ArialMT-31"/>
       <use xlink:href="#ArialMT-37" x="55.615234"/>
       <use xlink:href="#ArialMT-2e" x="111.230469"/>
       <use xlink:href="#ArialMT-35" x="139.013672"/>
      </g>
     </g>
    </g>
    <g id="xtick_9">
     <g id="text_9">
      <!-- 20.0 -->
      <g style="fill: #262626" transform="translate(383.065114 290.685594) scale(0.11 -0.11)">
       <use xlink:href="#ArialMT-32"/>
       <use xlink:href="#ArialMT-30" x="55.615234"/>
       <use xlink:href="#ArialMT-2e" x="111.230469"/>
       <use xlink:href="#ArialMT-30" x="139.013672"/>
      </g>
     </g>
    </g>
    <g id="text_10">
     <!-- Capture Time (s) -->
     <g style="fill: #262626" transform="translate(187.106406 305.607469) scale(0.12 -0.12)">
      <defs>
       <path id="ArialMT-43" d="M 3763 1606 
L 4369 1453 
Q 4178 706 3683 314 
Q 3188 -78 2472 -78 
Q 1731 -78 1267 223 
Q 803 525 561 1097 
Q 319 1669 319 2325 
Q 319 3041 592 3573 
Q 866 4106 1370 4382 
Q 1875 4659 2481 4659 
Q 3169 4659 3637 4309 
Q 4106 3959 4291 3325 
L 3694 3184 
Q 3534 3684 3231 3912 
Q 2928 4141 2469 4141 
Q 1941 4141 1586 3887 
Q 1231 3634 1087 3207 
Q 944 2781 944 2328 
Q 944 1744 1114 1308 
Q 1284 872 1643 656 
Q 2003 441 2422 441 
Q 2931 441 3284 734 
Q 3638 1028 3763 1606 
z
" transform="scale(0.015625)"/>
       <path id="ArialMT-61" d="M 2588 409 
Q 2275 144 1986 34 
Q 1697 -75 1366 -75 
Q 819 -75 525 192 
Q 231 459 231 875 
Q 231 1119 342 1320 
Q 453 1522 633 1644 
Q 813 1766 1038 1828 
Q 1203 1872 1538 1913 
Q 2219 1994 2541 2106 
Q 2544 2222 2544 2253 
Q 2544 2597 2384 2738 
Q 2169 2928 1744 2928 
Q 1347 2928 1158 2789 
Q 969 2650 878 2297 
L 328 2372 
Q 403 2725 575 2942 
Q 747 3159 1072 3276 
Q 1397 3394 1825 3394 
Q 2250 3394 2515 3294 
Q 2781 3194 2906 3042 
Q 3031 2891 3081 2659 
Q 3109 2516 3109 2141 
L 3109 1391 
Q 3109 606 3145 398 
Q 3181 191 3288 0 
L 2700 0 
Q 2613 175 2588 409 
z
M 2541 1666 
Q 2234 1541 1622 1453 
Q 1275 1403 1131 1340 
Q 988 1278 909 1158 
Q 831 1038 831 891 
Q 831 666 1001 516 
Q 1172 366 1500 366 
Q 1825 366 2078 508 
Q 2331 650 2450 897 
Q 2541 1088 2541 1459 
L 2541 1666 
z
" transform="scale(0.015625)"/>
       <path id="ArialMT-70" d="M 422 -1272 
L 422 3319 
L 934 3319 
L 934 2888 
Q 1116 3141 1344 3267 
Q 1572 3394 1897 3394 
Q 2322 3394 2647 3175 
Q 2972 2956 3137 2557 
Q 3303 2159 3303 1684 
Q 3303 1175 3120 767 
Q 2938 359 2589 142 
Q 2241 -75 1856 -75 
Q 1575 -75 1351 44 
Q 1128 163 984 344 
L 984 -1272 
L 422 -1272 
z
M 931 1641 
Q 931 1000 1190 694 
Q 1450 388 1819 388 
Q 2194 388 2461 705 
Q 2728 1022 2728 1688 
Q 2728 2322 2467 2637 
Q 2206 2953 1844 2953 
Q 1484 2953 1207 2617 
Q 931 2281 931 1641 
z
" transform="scale(0.015625)"/>
       <path id="ArialMT-74" d="M 1650 503 
L 1731 6 
Q 1494 -44 1306 -44 
Q 1000 -44 831 53 
Q 663 150 594 308 
Q 525 466 525 972 
L 525 2881 
L 113 2881 
L 113 3319 
L 525 3319 
L 525 4141 
L 1084 4478 
L 1084 3319 
L 1650 3319 
L 1650 2881 
L 1084 2881 
L 1084 941 
Q 1084 700 1114 631 
Q 1144 563 1211 522 
Q 1278 481 1403 481 
Q 1497 481 1650 503 
z
" transform="scale(0.015625)"/>
       <path id="ArialMT-75" d="M 2597 0 
L 2597 488 
Q 2209 -75 1544 -75 
Q 1250 -75 995 37 
Q 741 150 617 320 
Q 494 491 444 738 
Q 409 903 409 1263 
L 409 3319 
L 972 3319 
L 972 1478 
Q 972 1038 1006 884 
Q 1059 663 1231 536 
Q 1403 409 1656 409 
Q 1909 409 2131 539 
Q 2353 669 2445 892 
Q 2538 1116 2538 1541 
L 2538 3319 
L 3100 3319 
L 3100 0 
L 2597 0 
z
" transform="scale(0.015625)"/>
       <path id="ArialMT-72" d="M 416 0 
L 416 3319 
L 922 3319 
L 922 2816 
Q 1116 3169 1280 3281 
Q 1444 3394 1641 3394 
Q 1925 3394 2219 3213 
L 2025 2691 
Q 1819 2813 1613 2813 
Q 1428 2813 1281 2702 
Q 1134 2591 1072 2394 
Q 978 2094 978 1738 
L 978 0 
L 416 0 
z
" transform="scale(0.015625)"/>
       <path id="ArialMT-65" d="M 2694 1069 
L 3275 997 
Q 3138 488 2766 206 
Q 2394 -75 1816 -75 
Q 1088 -75 661 373 
Q 234 822 234 1631 
Q 234 2469 665 2931 
Q 1097 3394 1784 3394 
Q 2450 3394 2872 2941 
Q 3294 2488 3294 1666 
Q 3294 1616 3291 1516 
L 816 1516 
Q 847 969 1125 678 
Q 1403 388 1819 388 
Q 2128 388 2347 550 
Q 2566 713 2694 1069 
z
M 847 1978 
L 2700 1978 
Q 2663 2397 2488 2606 
Q 2219 2931 1791 2931 
Q 1403 2931 1139 2672 
Q 875 2413 847 1978 
z
" transform="scale(0.015625)"/>
       <path id="ArialMT-20" transform="scale(0.015625)"/>
       <path id="ArialMT-54" d="M 1659 0 
L 1659 4041 
L 150 4041 
L 150 4581 
L 3781 4581 
L 3781 4041 
L 2266 4041 
L 2266 0 
L 1659 0 
z
" transform="scale(0.015625)"/>
       <path id="ArialMT-69" d="M 425 3934 
L 425 4581 
L 988 4581 
L 988 3934 
L 425 3934 
z
M 425 0 
L 425 3319 
L 988 3319 
L 988 0 
L 425 0 
z
" transform="scale(0.015625)"/>
       <path id="ArialMT-6d" d="M 422 0 
L 422 3319 
L 925 3319 
L 925 2853 
Q 1081 3097 1340 3245 
Q 1600 3394 1931 3394 
Q 2300 3394 2536 3241 
Q 2772 3088 2869 2813 
Q 3263 3394 3894 3394 
Q 4388 3394 4653 3120 
Q 4919 2847 4919 2278 
L 4919 0 
L 4359 0 
L 4359 2091 
Q 4359 2428 4304 2576 
Q 4250 2725 4106 2815 
Q 3963 2906 3769 2906 
Q 3419 2906 3187 2673 
Q 2956 2441 2956 1928 
L 2956 0 
L 2394 0 
L 2394 2156 
Q 2394 2531 2256 2718 
Q 2119 2906 1806 2906 
Q 1569 2906 1367 2781 
Q 1166 2656 1075 2415 
Q 984 2175 984 1722 
L 984 0 
L 422 0 
z
" transform="scale(0.015625)"/>
       <path id="ArialMT-28" d="M 1497 -1347 
Q 1031 -759 709 28 
Q 388 816 388 1659 
Q 388 2403 628 3084 
Q 909 3875 1497 4659 
L 1900 4659 
Q 1522 4009 1400 3731 
Q 1209 3300 1100 2831 
Q 966 2247 966 1656 
Q 966 153 1900 -1347 
L 1497 -1347 
z
" transform="scale(0.015625)"/>
       <path id="ArialMT-73" d="M 197 991 
L 753 1078 
Q 800 744 1014 566 
Q 1228 388 1613 388 
Q 2000 388 2187 545 
Q 2375 703 2375 916 
Q 2375 1106 2209 1216 
Q 2094 1291 1634 1406 
Q 1016 1563 777 1677 
Q 538 1791 414 1992 
Q 291 2194 291 2438 
Q 291 2659 392 2848 
Q 494 3038 669 3163 
Q 800 3259 1026 3326 
Q 1253 3394 1513 3394 
Q 1903 3394 2198 3281 
Q 2494 3169 2634 2976 
Q 2775 2784 2828 2463 
L 2278 2388 
Q 2241 2644 2061 2787 
Q 1881 2931 1553 2931 
Q 1166 2931 1000 2803 
Q 834 2675 834 2503 
Q 834 2394 903 2306 
Q 972 2216 1119 2156 
Q 1203 2125 1616 2013 
Q 2213 1853 2448 1751 
Q 2684 1650 2818 1456 
Q 2953 1263 2953 975 
Q 2953 694 2789 445 
Q 2625 197 2315 61 
Q 2006 -75 1616 -75 
Q 969 -75 630 194 
Q 291 463 197 991 
z
" transform="scale(0.015625)"/>
       <path id="ArialMT-29" d="M 791 -1347 
L 388 -1347 
Q 1322 153 1322 1656 
Q 1322 2244 1188 2822 
Q 1081 3291 891 3722 
Q 769 4003 388 4659 
L 791 4659 
Q 1378 3875 1659 3084 
Q 1900 2403 1900 1659 
Q 1900 816 1576 28 
Q 1253 -759 791 -1347 
z
" transform="scale(0.015625)"/>
      </defs>
      <use xlink:href="#ArialMT-43"/>
      <use xlink:href="#ArialMT-61" x="72.216797"/>
      <use xlink:href="#ArialMT-70" x="127.832031"/>
      <use xlink:href="#ArialMT-74" x="183.447266"/>
      <use xlink:href="#ArialMT-75" x="211.230469"/>
      <use xlink:href="#ArialMT-72" x="266.845703"/>
      <use xlink:href="#ArialMT-65" x="300.146484"/>
      <use xlink:href="#ArialMT-20" x="355.761719"/>
      <use xlink:href="#ArialMT-54" x="381.794922"/>
      <use xlink:href="#ArialMT-69" x="439.128906"/>
      <use xlink:href="#ArialMT-6d" x="461.345703"/>
      <use xlink:href="#ArialMT-65" x="544.646484"/>
      <use xlink:href="#ArialMT-20" x="600.261719"/>
      <use xlink:href="#ArialMT-28" x="628.044922"/>
      <use xlink:href="#ArialMT-73" x="661.345703"/>
      <use xlink:href="#ArialMT-29" x="711.345703"/>
     </g>
    </g>
   </g>
   <g id="matplotlib.axis_2">
    <g id="ytick_1">
     <g id="text_11">
      <!-- 0.00 -->
      <g style="fill: #262626" transform="translate(22.315 277.248797) scale(0.11 -0.11)">
       <use xlink:href="#ArialMT-30"/>
       <use xlink:href="#ArialMT-2e" x="55.615234"/>
       <use xlink:href="#ArialMT-30" x="83.398438"/>
       <use xlink:href="#ArialMT-30" x="139.013672"/>
      </g>
     </g>
    </g>
    <g id="ytick_2">
     <g id="text_12">
      <!-- 0.02 -->
      <g style="fill: #262626" transform="translate(22.315 220.774949) scale(0.11 -0.11)">
       <use xlink:href="#ArialMT-30"/>
       <use xlink:href="#ArialMT-2e" x="55.615234"/>
       <use xlink:href="#ArialMT-30" x="83.398438"/>
       <use xlink:href="#ArialMT-32" x="139.013672"/>
      </g>
     </g>
    </g>
    <g id="ytick_3">
     <g id="text_13">
      <!-- 0.04 -->
      <g style="fill: #262626" transform="translate(22.315 164.301101) scale(0.11 -0.11)">
       <defs>
        <path id="ArialMT-34" d="M 2069 0 
L 2069 1097 
L 81 1097 
L 81 1613 
L 2172 4581 
L 2631 4581 
L 2631 1613 
L 3250 1613 
L 3250 1097 
L 2631 1097 
L 2631 0 
L 2069 0 
z
M 2069 1613 
L 2069 3678 
L 634 1613 
L 2069 1613 
z
" transform="scale(0.015625)"/>
       </defs>
       <use xlink:href="#ArialMT-30"/>
       <use xlink:href="#ArialMT-2e" x="55.615234"/>
       <use xlink:href="#ArialMT-30" x="83.398438"/>
       <use xlink:href="#ArialMT-34" x="139.013672"/>
      </g>
     </g>
    </g>
    <g id="ytick_4">
     <g id="text_14">
      <!-- 0.06 -->
      <g style="fill: #262626" transform="translate(22.315 107.827252) scale(0.11 -0.11)">
       <defs>
        <path id="ArialMT-36" d="M 3184 3459 
L 2625 3416 
Q 2550 3747 2413 3897 
Q 2184 4138 1850 4138 
Q 1581 4138 1378 3988 
Q 1113 3794 959 3422 
Q 806 3050 800 2363 
Q 1003 2672 1297 2822 
Q 1591 2972 1913 2972 
Q 2475 2972 2870 2558 
Q 3266 2144 3266 1488 
Q 3266 1056 3080 686 
Q 2894 316 2569 119 
Q 2244 -78 1831 -78 
Q 1128 -78 684 439 
Q 241 956 241 2144 
Q 241 3472 731 4075 
Q 1159 4600 1884 4600 
Q 2425 4600 2770 4297 
Q 3116 3994 3184 3459 
z
M 888 1484 
Q 888 1194 1011 928 
Q 1134 663 1356 523 
Q 1578 384 1822 384 
Q 2178 384 2434 671 
Q 2691 959 2691 1453 
Q 2691 1928 2437 2201 
Q 2184 2475 1800 2475 
Q 1419 2475 1153 2201 
Q 888 1928 888 1484 
z
" transform="scale(0.015625)"/>
       </defs>
       <use xlink:href="#ArialMT-30"/>
       <use xlink:href="#ArialMT-2e" x="55.615234"/>
       <use xlink:href="#ArialMT-30" x="83.398438"/>
       <use xlink:href="#ArialMT-36" x="139.013672"/>
      </g>
     </g>
    </g>
    <g id="ytick_5">
     <g id="text_15">
      <!-- 0.08 -->
      <g style="fill: #262626" transform="translate(22.315 51.353404) scale(0.11 -0.11)">
       <defs>
        <path id="ArialMT-38" d="M 1131 2484 
Q 781 2613 612 2850 
Q 444 3088 444 3419 
Q 444 3919 803 4259 
Q 1163 4600 1759 4600 
Q 2359 4600 2725 4251 
Q 3091 3903 3091 3403 
Q 3091 3084 2923 2848 
Q 2756 2613 2416 2484 
Q 2838 2347 3058 2040 
Q 3278 1734 3278 1309 
Q 3278 722 2862 322 
Q 2447 -78 1769 -78 
Q 1091 -78 675 323 
Q 259 725 259 1325 
Q 259 1772 486 2073 
Q 713 2375 1131 2484 
z
M 1019 3438 
Q 1019 3113 1228 2906 
Q 1438 2700 1772 2700 
Q 2097 2700 2305 2904 
Q 2513 3109 2513 3406 
Q 2513 3716 2298 3927 
Q 2084 4138 1766 4138 
Q 1444 4138 1231 3931 
Q 1019 3725 1019 3438 
z
M 838 1322 
Q 838 1081 952 856 
Q 1066 631 1291 507 
Q 1516 384 1775 384 
Q 2178 384 2440 643 
Q 2703 903 2703 1303 
Q 2703 1709 2433 1975 
Q 2163 2241 1756 2241 
Q 1359 2241 1098 1978 
Q 838 1716 838 1322 
z
" transform="scale(0.015625)"/>
       </defs>
       <use xlink:href="#ArialMT-30"/>
       <use xlink:href="#ArialMT-2e" x="55.615234"/>
       <use xlink:href="#ArialMT-30" x="83.398438"/>
       <use xlink:href="#ArialMT-38" x="139.013672"/>
      </g>
     </g>
    </g>
    <g id="text_16">
     <!-- Density -->
     <g style="fill: #262626" transform="translate(15.789375 160.26225) rotate(-90) scale(0.12 -0.12)">
      <defs>
       <path id="ArialMT-44" d="M 494 0 
L 494 4581 
L 2072 4581 
Q 2606 4581 2888 4516 
Q 3281 4425 3559 4188 
Q 3922 3881 4101 3404 
Q 4281 2928 4281 2316 
Q 4281 1794 4159 1391 
Q 4038 988 3847 723 
Q 3656 459 3429 307 
Q 3203 156 2883 78 
Q 2563 0 2147 0 
L 494 0 
z
M 1100 541 
L 2078 541 
Q 2531 541 2789 625 
Q 3047 709 3200 863 
Q 3416 1078 3536 1442 
Q 3656 1806 3656 2325 
Q 3656 3044 3420 3430 
Q 3184 3816 2847 3947 
Q 2603 4041 2063 4041 
L 1100 4041 
L 1100 541 
z
" transform="scale(0.015625)"/>
       <path id="ArialMT-6e" d="M 422 0 
L 422 3319 
L 928 3319 
L 928 2847 
Q 1294 3394 1984 3394 
Q 2284 3394 2536 3286 
Q 2788 3178 2913 3003 
Q 3038 2828 3088 2588 
Q 3119 2431 3119 2041 
L 3119 0 
L 2556 0 
L 2556 2019 
Q 2556 2363 2490 2533 
Q 2425 2703 2258 2804 
Q 2091 2906 1866 2906 
Q 1506 2906 1245 2678 
Q 984 2450 984 1813 
L 984 0 
L 422 0 
z
" transform="scale(0.015625)"/>
       <path id="ArialMT-79" d="M 397 -1278 
L 334 -750 
Q 519 -800 656 -800 
Q 844 -800 956 -737 
Q 1069 -675 1141 -563 
Q 1194 -478 1313 -144 
Q 1328 -97 1363 -6 
L 103 3319 
L 709 3319 
L 1400 1397 
Q 1534 1031 1641 628 
Q 1738 1016 1872 1384 
L 2581 3319 
L 3144 3319 
L 1881 -56 
Q 1678 -603 1566 -809 
Q 1416 -1088 1222 -1217 
Q 1028 -1347 759 -1347 
Q 597 -1347 397 -1278 
z
" transform="scale(0.015625)"/>
      </defs>
      <use xlink:href="#ArialMT-44"/>
      <use xlink:href="#ArialMT-65" x="72.216797"/>
      <use xlink:href="#ArialMT-6e" x="127.832031"/>
      <use xlink:href="#ArialMT-73" x="183.447266"/>
      <use xlink:href="#ArialMT-69" x="233.447266"/>
      <use xlink:href="#ArialMT-74" x="255.664062"/>
      <use xlink:href="#ArialMT-79" x="283.447266"/>
     </g>
    </g>
   </g>
   <g id="PolyCollection_1">
    <defs>
     <path id="ma94d976b04" d="M 70.635312 -129.665753 
L 70.635312 -42.021094 
L 72.26081 -42.021094 
L 73.886307 -42.021094 
L 75.511805 -42.021094 
L 77.137302 -42.021094 
L 78.7628 -42.021094 
L 80.388297 -42.021094 
L 82.013794 -42.021094 
L 83.639292 -42.021094 
L 85.264789 -42.021094 
L 86.890287 -42.021094 
L 88.515784 -42.021094 
L 90.141282 -42.021094 
L 91.766779 -42.021094 
L 93.392277 -42.021094 
L 95.017774 -42.021094 
L 96.643271 -42.021094 
L 98.268769 -42.021094 
L 99.894266 -42.021094 
L 101.519764 -42.021094 
L 103.145261 -42.021094 
L 104.770759 -42.021094 
L 106.396256 -42.021094 
L 108.021754 -42.021094 
L 109.647251 -42.021094 
L 111.272748 -42.021094 
L 112.898246 -42.021094 
L 114.523743 -42.021094 
L 116.149241 -42.021094 
L 117.774738 -42.021094 
L 119.400236 -42.021094 
L 121.025733 -42.021094 
L 122.651231 -42.021094 
L 124.276728 -42.021094 
L 125.902225 -42.021094 
L 127.527723 -42.021094 
L 129.15322 -42.021094 
L 130.778718 -42.021094 
L 132.404215 -42.021094 
L 134.029713 -42.021094 
L 135.65521 -42.021094 
L 137.280708 -42.021094 
L 138.906205 -42.021094 
L 140.531702 -42.021094 
L 142.1572 -42.021094 
L 143.782697 -42.021094 
L 145.408195 -42.021094 
L 147.033692 -42.021094 
L 148.65919 -42.021094 
L 150.284687 -42.021094 
L 151.910185 -42.021094 
L 153.535682 -42.021094 
L 155.161179 -42.021094 
L 156.786677 -42.021094 
L 158.412174 -42.021094 
L 160.037672 -42.021094 
L 161.663169 -42.021094 
L 163.288667 -42.021094 
L 164.914164 -42.021094 
L 166.539662 -42.021094 
L 168.165159 -42.021094 
L 169.790657 -42.021094 
L 171.416154 -42.021094 
L 173.041651 -42.021094 
L 174.667149 -42.021094 
L 176.292646 -42.021094 
L 177.918144 -42.021094 
L 179.543641 -42.021094 
L 181.169139 -42.021094 
L 182.794636 -42.021094 
L 184.420134 -42.021094 
L 186.045631 -42.021094 
L 187.671128 -42.021094 
L 189.296626 -42.021094 
L 190.922123 -42.021094 
L 192.547621 -42.021094 
L 194.173118 -42.021094 
L 195.798616 -42.021094 
L 197.424113 -42.021094 
L 199.049611 -42.021094 
L 200.675108 -42.021094 
L 202.300605 -42.021094 
L 203.926103 -42.021094 
L 205.5516 -42.021094 
L 207.177098 -42.021094 
L 208.802595 -42.021094 
L 210.428093 -42.021094 
L 212.05359 -42.021094 
L 213.679088 -42.021094 
L 215.304585 -42.021094 
L 216.930082 -42.021094 
L 218.55558 -42.021094 
L 220.181077 -42.021094 
L 221.806575 -42.021094 
L 223.432072 -42.021094 
L 225.05757 -42.021094 
L 226.683067 -42.021094 
L 228.308565 -42.021094 
L 229.934062 -42.021094 
L 231.559559 -42.021094 
L 233.185057 -42.021094 
L 234.810554 -42.021094 
L 236.436052 -42.021094 
L 238.061549 -42.021094 
L 239.687047 -42.021094 
L 241.312544 -42.021094 
L 242.938042 -42.021094 
L 244.563539 -42.021094 
L 246.189036 -42.021094 
L 247.814534 -42.021094 
L 249.440031 -42.021094 
L 251.065529 -42.021094 
L 252.691026 -42.021094 
L 254.316524 -42.021094 
L 255.942021 -42.021094 
L 257.567519 -42.021094 
L 259.193016 -42.021094 
L 260.818513 -42.021094 
L 262.444011 -42.021094 
L 264.069508 -42.021094 
L 265.695006 -42.021094 
L 267.320503 -42.021094 
L 268.946001 -42.021094 
L 270.571498 -42.021094 
L 272.196996 -42.021094 
L 273.822493 -42.021094 
L 275.44799 -42.021094 
L 277.073488 -42.021094 
L 278.698985 -42.021094 
L 280.324483 -42.021094 
L 281.94998 -42.021094 
L 283.575478 -42.021094 
L 285.200975 -42.021094 
L 286.826473 -42.021094 
L 288.45197 -42.021094 
L 290.077467 -42.021094 
L 291.702965 -42.021094 
L 293.328462 -42.021094 
L 294.95396 -42.021094 
L 296.579457 -42.021094 
L 298.204955 -42.021094 
L 299.830452 -42.021094 
L 301.45595 -42.021094 
L 303.081447 -42.021094 
L 304.706944 -42.021094 
L 306.332442 -42.021094 
L 307.957939 -42.021094 
L 309.583437 -42.021094 
L 311.208934 -42.021094 
L 312.834432 -42.021094 
L 314.459929 -42.021094 
L 316.085427 -42.021094 
L 317.710924 -42.021094 
L 319.336421 -42.021094 
L 320.961919 -42.021094 
L 322.587416 -42.021094 
L 324.212914 -42.021094 
L 325.838411 -42.021094 
L 327.463909 -42.021094 
L 329.089406 -42.021094 
L 330.714904 -42.021094 
L 332.340401 -42.021094 
L 333.965898 -42.021094 
L 335.591396 -42.021094 
L 337.216893 -42.021094 
L 338.842391 -42.021094 
L 340.467888 -42.021094 
L 342.093386 -42.021094 
L 343.718883 -42.021094 
L 345.344381 -42.021094 
L 346.969878 -42.021094 
L 348.595376 -42.021094 
L 350.220873 -42.021094 
L 351.84637 -42.021094 
L 353.471868 -42.021094 
L 355.097365 -42.021094 
L 356.722863 -42.021094 
L 358.34836 -42.021094 
L 359.973858 -42.021094 
L 361.599355 -42.021094 
L 363.224853 -42.021094 
L 364.85035 -42.021094 
L 366.475847 -42.021094 
L 368.101345 -42.021094 
L 369.726842 -42.021094 
L 371.35234 -42.021094 
L 372.977837 -42.021094 
L 374.603335 -42.021094 
L 376.228832 -42.021094 
L 377.85433 -42.021094 
L 379.479827 -42.021094 
L 381.105324 -42.021094 
L 382.730822 -42.021094 
L 384.356319 -42.021094 
L 385.981817 -42.021094 
L 387.607314 -42.021094 
L 389.232812 -42.021094 
L 390.858309 -42.021094 
L 392.483807 -42.021094 
L 394.109304 -42.021094 
L 394.109304 -174.163438 
L 394.109304 -174.163438 
L 392.483807 -175.084291 
L 390.858309 -175.820514 
L 389.232812 -176.372106 
L 387.607314 -176.740081 
L 385.981817 -176.92645 
L 384.356319 -176.934203 
L 382.730822 -176.767269 
L 381.105324 -176.430484 
L 379.479827 -175.929536 
L 377.85433 -175.270915 
L 376.228832 -174.461847 
L 374.603335 -173.510237 
L 372.977837 -172.424587 
L 371.35234 -171.21393 
L 369.726842 -169.887753 
L 368.101345 -168.455911 
L 366.475847 -166.928556 
L 364.85035 -165.316054 
L 363.224853 -163.628903 
L 361.599355 -161.877663 
L 359.973858 -160.072875 
L 358.34836 -158.224995 
L 356.722863 -156.344322 
L 355.097365 -154.440937 
L 353.471868 -152.524645 
L 351.84637 -150.604923 
L 350.220873 -148.690868 
L 348.595376 -146.791162 
L 346.969878 -144.914031 
L 345.344381 -143.067217 
L 343.718883 -141.257955 
L 342.093386 -139.492955 
L 340.467888 -137.778389 
L 338.842391 -136.119883 
L 337.216893 -134.522518 
L 335.591396 -132.990833 
L 333.965898 -131.528827 
L 332.340401 -130.139978 
L 330.714904 -128.827254 
L 329.089406 -127.593131 
L 327.463909 -126.439613 
L 325.838411 -125.368258 
L 324.212914 -124.3802 
L 322.587416 -123.476173 
L 320.961919 -122.656543 
L 319.336421 -121.921329 
L 317.710924 -121.270235 
L 316.085427 -120.702674 
L 314.459929 -120.217797 
L 312.834432 -119.814513 
L 311.208934 -119.491523 
L 309.583437 -119.247334 
L 307.957939 -119.080288 
L 306.332442 -118.988579 
L 304.706944 -118.970274 
L 303.081447 -119.023329 
L 301.45595 -119.145608 
L 299.830452 -119.334896 
L 298.204955 -119.588911 
L 296.579457 -119.905321 
L 294.95396 -120.281747 
L 293.328462 -120.71578 
L 291.702965 -121.204986 
L 290.077467 -121.746912 
L 288.45197 -122.339096 
L 286.826473 -122.979071 
L 285.200975 -123.664372 
L 283.575478 -124.392538 
L 281.94998 -125.16112 
L 280.324483 -125.967685 
L 278.698985 -126.809816 
L 277.073488 -127.685124 
L 275.44799 -128.591246 
L 273.822493 -129.52585 
L 272.196996 -130.486645 
L 270.571498 -131.471378 
L 268.946001 -132.477845 
L 267.320503 -133.503894 
L 265.695006 -134.547428 
L 264.069508 -135.606415 
L 262.444011 -136.678891 
L 260.818513 -137.762966 
L 259.193016 -138.856828 
L 257.567519 -139.958752 
L 255.942021 -141.067104 
L 254.316524 -142.180347 
L 252.691026 -143.297044 
L 251.065529 -144.415866 
L 249.440031 -145.535593 
L 247.814534 -146.655122 
L 246.189036 -147.773468 
L 244.563539 -148.889763 
L 242.938042 -150.003267 
L 241.312544 -151.113359 
L 239.687047 -152.219545 
L 238.061549 -153.321453 
L 236.436052 -154.418831 
L 234.810554 -155.511549 
L 233.185057 -156.599587 
L 231.559559 -157.683039 
L 229.934062 -158.762101 
L 228.308565 -159.837065 
L 226.683067 -160.908313 
L 225.05757 -161.976306 
L 223.432072 -163.041574 
L 221.806575 -164.104706 
L 220.181077 -165.166337 
L 218.55558 -166.227136 
L 216.930082 -167.287794 
L 215.304585 -168.349007 
L 213.679088 -169.411465 
L 212.05359 -170.475836 
L 210.428093 -171.542751 
L 208.802595 -172.612791 
L 207.177098 -173.686472 
L 205.5516 -174.764228 
L 203.926103 -175.846402 
L 202.300605 -176.93323 
L 200.675108 -178.024828 
L 199.049611 -179.121182 
L 197.424113 -180.222138 
L 195.798616 -181.327389 
L 194.173118 -182.436472 
L 192.547621 -183.548757 
L 190.922123 -184.663444 
L 189.296626 -185.779558 
L 187.671128 -186.895947 
L 186.045631 -188.01128 
L 184.420134 -189.124052 
L 182.794636 -190.232579 
L 181.169139 -191.33501 
L 179.543641 -192.429325 
L 177.918144 -193.51335 
L 176.292646 -194.584755 
L 174.667149 -195.641073 
L 173.041651 -196.679702 
L 171.416154 -197.697925 
L 169.790657 -198.692915 
L 168.165159 -199.661749 
L 166.539662 -200.601427 
L 164.914164 -201.508879 
L 163.288667 -202.380982 
L 161.663169 -203.214574 
L 160.037672 -204.00647 
L 158.412174 -204.753469 
L 156.786677 -205.452378 
L 155.161179 -206.100015 
L 153.535682 -206.693227 
L 151.910185 -207.228903 
L 150.284687 -207.70398 
L 148.65919 -208.11546 
L 147.033692 -208.460416 
L 145.408195 -208.736003 
L 143.782697 -208.939465 
L 142.1572 -209.068146 
L 140.531702 -209.119495 
L 138.906205 -209.091077 
L 137.280708 -208.980574 
L 135.65521 -208.785796 
L 134.029713 -208.504686 
L 132.404215 -208.135327 
L 130.778718 -207.675947 
L 129.15322 -207.124926 
L 127.527723 -206.480801 
L 125.902225 -205.742276 
L 124.276728 -204.908226 
L 122.651231 -203.977704 
L 121.025733 -202.949953 
L 119.400236 -201.824407 
L 117.774738 -200.600706 
L 116.149241 -199.2787 
L 114.523743 -197.858458 
L 112.898246 -196.340279 
L 111.272748 -194.7247 
L 109.647251 -193.012503 
L 108.021754 -191.204721 
L 106.396256 -189.302652 
L 104.770759 -187.307861 
L 103.145261 -185.222185 
L 101.519764 -183.047744 
L 99.894266 -180.786935 
L 98.268769 -178.442445 
L 96.643271 -176.017243 
L 95.017774 -173.514582 
L 93.392277 -170.937998 
L 91.766779 -168.2913 
L 90.141282 -165.578566 
L 88.515784 -162.804132 
L 86.890287 -159.972583 
L 85.264789 -157.088733 
L 83.639292 -154.157616 
L 82.013794 -151.18446 
L 80.388297 -148.174673 
L 78.7628 -145.133815 
L 77.137302 -142.06758 
L 75.511805 -138.981761 
L 73.886307 -135.882233 
L 72.26081 -132.774917 
L 70.635312 -129.665753 
z
"/>
    </defs>
    <g clip-path="url(#p417ed1fe4a)">
     <use xlink:href="#ma94d976b04" x="0" y="315.333094" style="fill: #5ec962; fill-opacity: 0.7"/>
    </g>
   </g>
   <g id="PolyCollection_2">
    <defs>
     <path id="m36a9bb80d4" d="M 69.454759 -177.667199 
L 69.454759 -42.021094 
L 71.086177 -42.021094 
L 72.717596 -42.021094 
L 74.349014 -42.021094 
L 75.980433 -42.021094 
L 77.611851 -42.021094 
L 79.24327 -42.021094 
L 80.874689 -42.021094 
L 82.506107 -42.021094 
L 84.137526 -42.021094 
L 85.768944 -42.021094 
L 87.400363 -42.021094 
L 89.031781 -42.021094 
L 90.6632 -42.021094 
L 92.294619 -42.021094 
L 93.926037 -42.021094 
L 95.557456 -42.021094 
L 97.188874 -42.021094 
L 98.820293 -42.021094 
L 100.451711 -42.021094 
L 102.08313 -42.021094 
L 103.714549 -42.021094 
L 105.345967 -42.021094 
L 106.977386 -42.021094 
L 108.608804 -42.021094 
L 110.240223 -42.021094 
L 111.871642 -42.021094 
L 113.50306 -42.021094 
L 115.134479 -42.021094 
L 116.765897 -42.021094 
L 118.397316 -42.021094 
L 120.028734 -42.021094 
L 121.660153 -42.021094 
L 123.291572 -42.021094 
L 124.92299 -42.021094 
L 126.554409 -42.021094 
L 128.185827 -42.021094 
L 129.817246 -42.021094 
L 131.448664 -42.021094 
L 133.080083 -42.021094 
L 134.711502 -42.021094 
L 136.34292 -42.021094 
L 137.974339 -42.021094 
L 139.605757 -42.021094 
L 141.237176 -42.021094 
L 142.868594 -42.021094 
L 144.500013 -42.021094 
L 146.131432 -42.021094 
L 147.76285 -42.021094 
L 149.394269 -42.021094 
L 151.025687 -42.021094 
L 152.657106 -42.021094 
L 154.288525 -42.021094 
L 155.919943 -42.021094 
L 157.551362 -42.021094 
L 159.18278 -42.021094 
L 160.814199 -42.021094 
L 162.445617 -42.021094 
L 164.077036 -42.021094 
L 165.708455 -42.021094 
L 167.339873 -42.021094 
L 168.971292 -42.021094 
L 170.60271 -42.021094 
L 172.234129 -42.021094 
L 173.865547 -42.021094 
L 175.496966 -42.021094 
L 177.128385 -42.021094 
L 178.759803 -42.021094 
L 180.391222 -42.021094 
L 182.02264 -42.021094 
L 183.654059 -42.021094 
L 185.285477 -42.021094 
L 186.916896 -42.021094 
L 188.548315 -42.021094 
L 190.179733 -42.021094 
L 191.811152 -42.021094 
L 193.44257 -42.021094 
L 195.073989 -42.021094 
L 196.705408 -42.021094 
L 198.336826 -42.021094 
L 199.968245 -42.021094 
L 201.599663 -42.021094 
L 203.231082 -42.021094 
L 204.8625 -42.021094 
L 206.493919 -42.021094 
L 208.125338 -42.021094 
L 209.756756 -42.021094 
L 211.388175 -42.021094 
L 213.019593 -42.021094 
L 214.651012 -42.021094 
L 216.28243 -42.021094 
L 217.913849 -42.021094 
L 219.545268 -42.021094 
L 221.176686 -42.021094 
L 222.808105 -42.021094 
L 224.439523 -42.021094 
L 226.070942 -42.021094 
L 227.70236 -42.021094 
L 229.333779 -42.021094 
L 230.965198 -42.021094 
L 232.596616 -42.021094 
L 234.228035 -42.021094 
L 235.859453 -42.021094 
L 237.490872 -42.021094 
L 239.122291 -42.021094 
L 240.753709 -42.021094 
L 242.385128 -42.021094 
L 244.016546 -42.021094 
L 245.647965 -42.021094 
L 247.279383 -42.021094 
L 248.910802 -42.021094 
L 250.542221 -42.021094 
L 252.173639 -42.021094 
L 253.805058 -42.021094 
L 255.436476 -42.021094 
L 257.067895 -42.021094 
L 258.699313 -42.021094 
L 260.330732 -42.021094 
L 261.962151 -42.021094 
L 263.593569 -42.021094 
L 265.224988 -42.021094 
L 266.856406 -42.021094 
L 268.487825 -42.021094 
L 270.119243 -42.021094 
L 271.750662 -42.021094 
L 273.382081 -42.021094 
L 275.013499 -42.021094 
L 276.644918 -42.021094 
L 278.276336 -42.021094 
L 279.907755 -42.021094 
L 281.539174 -42.021094 
L 283.170592 -42.021094 
L 284.802011 -42.021094 
L 286.433429 -42.021094 
L 288.064848 -42.021094 
L 289.696266 -42.021094 
L 291.327685 -42.021094 
L 292.959104 -42.021094 
L 294.590522 -42.021094 
L 296.221941 -42.021094 
L 297.853359 -42.021094 
L 299.484778 -42.021094 
L 301.116196 -42.021094 
L 302.747615 -42.021094 
L 304.379034 -42.021094 
L 306.010452 -42.021094 
L 307.641871 -42.021094 
L 309.273289 -42.021094 
L 310.904708 -42.021094 
L 312.536126 -42.021094 
L 314.167545 -42.021094 
L 315.798964 -42.021094 
L 317.430382 -42.021094 
L 319.061801 -42.021094 
L 320.693219 -42.021094 
L 322.324638 -42.021094 
L 323.956057 -42.021094 
L 325.587475 -42.021094 
L 327.218894 -42.021094 
L 328.850312 -42.021094 
L 330.481731 -42.021094 
L 332.113149 -42.021094 
L 333.744568 -42.021094 
L 335.375987 -42.021094 
L 337.007405 -42.021094 
L 338.638824 -42.021094 
L 340.270242 -42.021094 
L 341.901661 -42.021094 
L 343.533079 -42.021094 
L 345.164498 -42.021094 
L 346.795917 -42.021094 
L 348.427335 -42.021094 
L 350.058754 -42.021094 
L 351.690172 -42.021094 
L 353.321591 -42.021094 
L 354.953009 -42.021094 
L 356.584428 -42.021094 
L 358.215847 -42.021094 
L 359.847265 -42.021094 
L 361.478684 -42.021094 
L 363.110102 -42.021094 
L 364.741521 -42.021094 
L 366.372939 -42.021094 
L 368.004358 -42.021094 
L 369.635777 -42.021094 
L 371.267195 -42.021094 
L 372.898614 -42.021094 
L 374.530032 -42.021094 
L 376.161451 -42.021094 
L 377.79287 -42.021094 
L 379.424288 -42.021094 
L 381.055707 -42.021094 
L 382.687125 -42.021094 
L 384.318544 -42.021094 
L 385.949962 -42.021094 
L 387.581381 -42.021094 
L 389.2128 -42.021094 
L 390.844218 -42.021094 
L 392.475637 -42.021094 
L 394.107055 -42.021094 
L 394.107055 -155.255068 
L 394.107055 -155.255068 
L 392.475637 -156.251697 
L 390.844218 -157.038748 
L 389.2128 -157.616171 
L 387.581381 -157.985479 
L 385.949962 -158.149718 
L 384.318544 -158.113418 
L 382.687125 -157.882525 
L 381.055707 -157.464324 
L 379.424288 -156.867337 
L 377.79287 -156.101214 
L 376.161451 -155.17661 
L 374.530032 -154.105052 
L 372.898614 -152.8988 
L 371.267195 -151.570705 
L 369.635777 -150.134056 
L 368.004358 -148.602435 
L 366.372939 -146.989571 
L 364.741521 -145.309195 
L 363.110102 -143.574903 
L 361.478684 -141.800024 
L 359.847265 -139.997503 
L 358.215847 -138.179785 
L 356.584428 -136.358722 
L 354.953009 -134.545479 
L 353.321591 -132.750465 
L 351.690172 -130.983273 
L 350.058754 -129.25263 
L 348.427335 -127.566371 
L 346.795917 -125.931411 
L 345.164498 -124.353746 
L 343.533079 -122.838457 
L 341.901661 -121.389723 
L 340.270242 -120.010856 
L 338.638824 -118.704332 
L 337.007405 -117.471837 
L 335.375987 -116.314324 
L 333.744568 -115.232062 
L 332.113149 -114.224708 
L 330.481731 -113.291362 
L 328.850312 -112.430643 
L 327.218894 -111.64075 
L 325.587475 -110.919536 
L 323.956057 -110.264567 
L 322.324638 -109.673192 
L 320.693219 -109.142602 
L 319.061801 -108.669885 
L 317.430382 -108.252085 
L 315.798964 -107.886243 
L 314.167545 -107.569449 
L 312.536126 -107.298872 
L 310.904708 -107.071802 
L 309.273289 -106.885669 
L 307.641871 -106.738074 
L 306.010452 -106.6268 
L 304.379034 -106.549832 
L 302.747615 -106.505359 
L 301.116196 -106.491782 
L 299.484778 -106.507716 
L 297.853359 -106.551985 
L 296.221941 -106.623616 
L 294.590522 -106.721836 
L 292.959104 -106.846057 
L 291.327685 -106.995868 
L 289.696266 -107.171021 
L 288.064848 -107.37142 
L 286.433429 -107.597103 
L 284.802011 -107.848233 
L 283.170592 -108.125079 
L 281.539174 -108.428009 
L 279.907755 -108.75747 
L 278.276336 -109.113982 
L 276.644918 -109.49812 
L 275.013499 -109.91051 
L 273.382081 -110.351813 
L 271.750662 -110.822717 
L 270.119243 -111.323931 
L 268.487825 -111.856175 
L 266.856406 -112.420171 
L 265.224988 -113.01664 
L 263.593569 -113.646291 
L 261.962151 -114.309818 
L 260.330732 -115.007893 
L 258.699313 -115.741159 
L 257.067895 -116.510226 
L 255.436476 -117.315663 
L 253.805058 -118.157993 
L 252.173639 -119.037688 
L 250.542221 -119.955162 
L 248.910802 -120.910766 
L 247.279383 -121.904777 
L 245.647965 -122.937403 
L 244.016546 -124.008764 
L 242.385128 -125.118897 
L 240.753709 -126.267746 
L 239.122291 -127.45516 
L 237.490872 -128.680886 
L 235.859453 -129.944568 
L 234.228035 -131.245746 
L 232.596616 -132.583852 
L 230.965198 -133.958209 
L 229.333779 -135.368038 
L 227.70236 -136.81245 
L 226.070942 -138.29046 
L 224.439523 -139.800982 
L 222.808105 -141.342841 
L 221.176686 -142.914777 
L 219.545268 -144.515454 
L 217.913849 -146.143466 
L 216.28243 -147.797353 
L 214.651012 -149.475605 
L 213.019593 -151.17668 
L 211.388175 -152.89901 
L 209.756756 -154.641021 
L 208.125338 -156.401137 
L 206.493919 -158.177803 
L 204.8625 -159.969491 
L 203.231082 -161.774716 
L 201.599663 -163.592051 
L 199.968245 -165.420135 
L 198.336826 -167.257685 
L 196.705408 -169.103513 
L 195.073989 -170.956528 
L 193.44257 -172.815749 
L 191.811152 -174.680312 
L 190.179733 -176.549475 
L 188.548315 -178.422626 
L 186.916896 -180.299278 
L 185.285477 -182.179077 
L 183.654059 -184.061797 
L 182.02264 -185.947339 
L 180.391222 -187.83572 
L 178.759803 -189.72707 
L 177.128385 -191.621617 
L 175.496966 -193.519676 
L 173.865547 -195.42163 
L 172.234129 -197.327912 
L 170.60271 -199.238983 
L 168.971292 -201.155304 
L 167.339873 -203.077311 
L 165.708455 -205.005383 
L 164.077036 -206.939808 
L 162.445617 -208.880747 
L 160.814199 -210.828196 
L 159.18278 -212.781949 
L 157.551362 -214.741549 
L 155.919943 -216.706255 
L 154.288525 -218.67499 
L 152.657106 -220.646306 
L 151.025687 -222.618333 
L 149.394269 -224.588747 
L 147.76285 -226.554723 
L 146.131432 -228.512905 
L 144.500013 -230.459371 
L 142.868594 -232.389607 
L 141.237176 -234.29848 
L 139.605757 -236.180231 
L 137.974339 -238.028456 
L 136.34292 -239.836113 
L 134.711502 -241.595523 
L 133.080083 -243.298391 
L 131.448664 -244.93583 
L 129.817246 -246.498397 
L 128.185827 -247.976138 
L 126.554409 -249.358644 
L 124.92299 -250.635121 
L 123.291572 -251.794461 
L 121.660153 -252.825328 
L 120.028734 -253.716258 
L 118.397316 -254.455752 
L 116.765897 -255.032392 
L 115.134479 -255.434953 
L 113.50306 -255.652523 
L 111.871642 -255.674622 
L 110.240223 -255.49133 
L 108.608804 -255.093408 
L 106.977386 -254.472416 
L 105.345967 -253.620837 
L 103.714549 -252.53218 
L 102.08313 -251.201091 
L 100.451711 -249.623444 
L 98.820293 -247.796425 
L 97.188874 -245.718607 
L 95.557456 -243.390002 
L 93.926037 -240.812112 
L 92.294619 -237.987947 
L 90.6632 -234.922048 
L 89.031781 -231.620468 
L 87.400363 -228.090762 
L 85.768944 -224.341936 
L 84.137526 -220.384399 
L 82.506107 -216.229885 
L 80.874689 -211.891367 
L 79.24327 -207.382956 
L 77.611851 -202.719785 
L 75.980433 -197.917885 
L 74.349014 -192.994047 
L 72.717596 -187.965681 
L 71.086177 -182.850666 
L 69.454759 -177.667199 
z
"/>
    </defs>
    <g clip-path="url(#p417ed1fe4a)">
     <use xlink:href="#m36a9bb80d4" x="0" y="315.333094" style="fill: #21918c; fill-opacity: 0.7"/>
    </g>
   </g>
   <g id="PolyCollection_3">
    <defs>
     <path id="m284f21e164" d="M 72.145297 -235.448657 
L 72.145297 -42.021094 
L 73.76266 -42.021094 
L 75.380023 -42.021094 
L 76.997387 -42.021094 
L 78.61475 -42.021094 
L 80.232113 -42.021094 
L 81.849477 -42.021094 
L 83.46684 -42.021094 
L 85.084203 -42.021094 
L 86.701566 -42.021094 
L 88.31893 -42.021094 
L 89.936293 -42.021094 
L 91.553656 -42.021094 
L 93.17102 -42.021094 
L 94.788383 -42.021094 
L 96.405746 -42.021094 
L 98.02311 -42.021094 
L 99.640473 -42.021094 
L 101.257836 -42.021094 
L 102.875199 -42.021094 
L 104.492563 -42.021094 
L 106.109926 -42.021094 
L 107.727289 -42.021094 
L 109.344653 -42.021094 
L 110.962016 -42.021094 
L 112.579379 -42.021094 
L 114.196742 -42.021094 
L 115.814106 -42.021094 
L 117.431469 -42.021094 
L 119.048832 -42.021094 
L 120.666196 -42.021094 
L 122.283559 -42.021094 
L 123.900922 -42.021094 
L 125.518285 -42.021094 
L 127.135649 -42.021094 
L 128.753012 -42.021094 
L 130.370375 -42.021094 
L 131.987739 -42.021094 
L 133.605102 -42.021094 
L 135.222465 -42.021094 
L 136.839829 -42.021094 
L 138.457192 -42.021094 
L 140.074555 -42.021094 
L 141.691918 -42.021094 
L 143.309282 -42.021094 
L 144.926645 -42.021094 
L 146.544008 -42.021094 
L 148.161372 -42.021094 
L 149.778735 -42.021094 
L 151.396098 -42.021094 
L 153.013461 -42.021094 
L 154.630825 -42.021094 
L 156.248188 -42.021094 
L 157.865551 -42.021094 
L 159.482915 -42.021094 
L 161.100278 -42.021094 
L 162.717641 -42.021094 
L 164.335004 -42.021094 
L 165.952368 -42.021094 
L 167.569731 -42.021094 
L 169.187094 -42.021094 
L 170.804458 -42.021094 
L 172.421821 -42.021094 
L 174.039184 -42.021094 
L 175.656548 -42.021094 
L 177.273911 -42.021094 
L 178.891274 -42.021094 
L 180.508637 -42.021094 
L 182.126001 -42.021094 
L 183.743364 -42.021094 
L 185.360727 -42.021094 
L 186.978091 -42.021094 
L 188.595454 -42.021094 
L 190.212817 -42.021094 
L 191.83018 -42.021094 
L 193.447544 -42.021094 
L 195.064907 -42.021094 
L 196.68227 -42.021094 
L 198.299634 -42.021094 
L 199.916997 -42.021094 
L 201.53436 -42.021094 
L 203.151723 -42.021094 
L 204.769087 -42.021094 
L 206.38645 -42.021094 
L 208.003813 -42.021094 
L 209.621177 -42.021094 
L 211.23854 -42.021094 
L 212.855903 -42.021094 
L 214.473267 -42.021094 
L 216.09063 -42.021094 
L 217.707993 -42.021094 
L 219.325356 -42.021094 
L 220.94272 -42.021094 
L 222.560083 -42.021094 
L 224.177446 -42.021094 
L 225.79481 -42.021094 
L 227.412173 -42.021094 
L 229.029536 -42.021094 
L 230.646899 -42.021094 
L 232.264263 -42.021094 
L 233.881626 -42.021094 
L 235.498989 -42.021094 
L 237.116353 -42.021094 
L 238.733716 -42.021094 
L 240.351079 -42.021094 
L 241.968442 -42.021094 
L 243.585806 -42.021094 
L 245.203169 -42.021094 
L 246.820532 -42.021094 
L 248.437896 -42.021094 
L 250.055259 -42.021094 
L 251.672622 -42.021094 
L 253.289985 -42.021094 
L 254.907349 -42.021094 
L 256.524712 -42.021094 
L 258.142075 -42.021094 
L 259.759439 -42.021094 
L 261.376802 -42.021094 
L 262.994165 -42.021094 
L 264.611529 -42.021094 
L 266.228892 -42.021094 
L 267.846255 -42.021094 
L 269.463618 -42.021094 
L 271.080982 -42.021094 
L 272.698345 -42.021094 
L 274.315708 -42.021094 
L 275.933072 -42.021094 
L 277.550435 -42.021094 
L 279.167798 -42.021094 
L 280.785161 -42.021094 
L 282.402525 -42.021094 
L 284.019888 -42.021094 
L 285.637251 -42.021094 
L 287.254615 -42.021094 
L 288.871978 -42.021094 
L 290.489341 -42.021094 
L 292.106704 -42.021094 
L 293.724068 -42.021094 
L 295.341431 -42.021094 
L 296.958794 -42.021094 
L 298.576158 -42.021094 
L 300.193521 -42.021094 
L 301.810884 -42.021094 
L 303.428248 -42.021094 
L 305.045611 -42.021094 
L 306.662974 -42.021094 
L 308.280337 -42.021094 
L 309.897701 -42.021094 
L 311.515064 -42.021094 
L 313.132427 -42.021094 
L 314.749791 -42.021094 
L 316.367154 -42.021094 
L 317.984517 -42.021094 
L 319.60188 -42.021094 
L 321.219244 -42.021094 
L 322.836607 -42.021094 
L 324.45397 -42.021094 
L 326.071334 -42.021094 
L 327.688697 -42.021094 
L 329.30606 -42.021094 
L 330.923423 -42.021094 
L 332.540787 -42.021094 
L 334.15815 -42.021094 
L 335.775513 -42.021094 
L 337.392877 -42.021094 
L 339.01024 -42.021094 
L 340.627603 -42.021094 
L 342.244967 -42.021094 
L 343.86233 -42.021094 
L 345.479693 -42.021094 
L 347.097056 -42.021094 
L 348.71442 -42.021094 
L 350.331783 -42.021094 
L 351.949146 -42.021094 
L 353.56651 -42.021094 
L 355.183873 -42.021094 
L 356.801236 -42.021094 
L 358.418599 -42.021094 
L 360.035963 -42.021094 
L 361.653326 -42.021094 
L 363.270689 -42.021094 
L 364.888053 -42.021094 
L 366.505416 -42.021094 
L 368.122779 -42.021094 
L 369.740142 -42.021094 
L 371.357506 -42.021094 
L 372.974869 -42.021094 
L 374.592232 -42.021094 
L 376.209596 -42.021094 
L 377.826959 -42.021094 
L 379.444322 -42.021094 
L 381.061686 -42.021094 
L 382.679049 -42.021094 
L 384.296412 -42.021094 
L 385.913775 -42.021094 
L 387.531139 -42.021094 
L 389.148502 -42.021094 
L 390.765865 -42.021094 
L 392.383229 -42.021094 
L 394.000592 -42.021094 
L 394.000592 -104.782969 
L 394.000592 -104.782969 
L 392.383229 -105.038331 
L 390.765865 -105.215955 
L 389.148502 -105.316631 
L 387.531139 -105.341548 
L 385.913775 -105.29228 
L 384.296412 -105.17078 
L 382.679049 -104.979358 
L 381.061686 -104.720669 
L 379.444322 -104.397685 
L 377.826959 -104.01368 
L 376.209596 -103.572195 
L 374.592232 -103.077019 
L 372.974869 -102.532156 
L 371.357506 -101.941793 
L 369.740142 -101.310273 
L 368.122779 -100.64206 
L 366.505416 -99.94171 
L 364.888053 -99.213834 
L 363.270689 -98.463072 
L 361.653326 -97.694055 
L 360.035963 -96.911383 
L 358.418599 -96.119589 
L 356.801236 -95.323115 
L 355.183873 -94.526286 
L 353.56651 -93.733286 
L 351.949146 -92.948135 
L 350.331783 -92.174671 
L 348.71442 -91.416534 
L 347.097056 -90.677149 
L 345.479693 -89.959716 
L 343.86233 -89.2672 
L 342.244967 -88.602325 
L 340.627603 -87.967567 
L 339.01024 -87.365156 
L 337.392877 -86.797075 
L 335.775513 -86.265062 
L 334.15815 -85.770618 
L 332.540787 -85.315011 
L 330.923423 -84.899285 
L 329.30606 -84.524274 
L 327.688697 -84.190609 
L 326.071334 -83.898737 
L 324.45397 -83.648927 
L 322.836607 -83.441295 
L 321.219244 -83.275811 
L 319.60188 -83.152318 
L 317.984517 -83.070548 
L 316.367154 -83.030137 
L 314.749791 -83.030642 
L 313.132427 -83.071555 
L 311.515064 -83.152314 
L 309.897701 -83.272324 
L 308.280337 -83.430961 
L 306.662974 -83.627592 
L 305.045611 -83.861579 
L 303.428248 -84.13229 
L 301.810884 -84.439109 
L 300.193521 -84.78144 
L 298.576158 -85.158716 
L 296.958794 -85.570396 
L 295.341431 -86.015978 
L 293.724068 -86.494991 
L 292.106704 -87.007001 
L 290.489341 -87.551608 
L 288.871978 -88.128447 
L 287.254615 -88.737181 
L 285.637251 -89.377501 
L 284.019888 -90.04912 
L 282.402525 -90.751769 
L 280.785161 -91.485194 
L 279.167798 -92.249146 
L 277.550435 -93.043379 
L 275.933072 -93.867642 
L 274.315708 -94.721675 
L 272.698345 -95.605204 
L 271.080982 -96.517934 
L 269.463618 -97.459546 
L 267.846255 -98.429692 
L 266.228892 -99.427992 
L 264.611529 -100.454029 
L 262.994165 -101.507354 
L 261.376802 -102.587474 
L 259.759439 -103.693864 
L 258.142075 -104.825955 
L 256.524712 -105.983149 
L 254.907349 -107.164809 
L 253.289985 -108.370271 
L 251.672622 -109.598847 
L 250.055259 -110.849827 
L 248.437896 -112.122488 
L 246.820532 -113.416102 
L 245.203169 -114.729942 
L 243.585806 -116.063288 
L 241.968442 -117.415443 
L 240.351079 -118.785736 
L 238.733716 -120.173534 
L 237.116353 -121.578253 
L 235.498989 -122.999367 
L 233.881626 -124.436419 
L 232.264263 -125.889029 
L 230.646899 -127.356908 
L 229.029536 -128.839863 
L 227.412173 -130.337809 
L 225.79481 -131.850776 
L 224.177446 -133.378917 
L 222.560083 -134.922514 
L 220.94272 -136.481985 
L 219.325356 -138.057887 
L 217.707993 -139.650919 
L 216.09063 -141.261927 
L 214.473267 -142.891901 
L 212.855903 -144.541975 
L 211.23854 -146.213425 
L 209.621177 -147.907666 
L 208.003813 -149.62624 
L 206.38645 -151.370818 
L 204.769087 -153.143182 
L 203.151723 -154.945217 
L 201.53436 -156.778897 
L 199.916997 -158.646272 
L 198.299634 -160.54945 
L 196.68227 -162.490577 
L 195.064907 -164.471819 
L 193.447544 -166.495342 
L 191.83018 -168.563283 
L 190.212817 -170.677733 
L 188.595454 -172.840705 
L 186.978091 -175.054113 
L 185.360727 -177.319737 
L 183.743364 -179.639202 
L 182.126001 -182.013945 
L 180.508637 -184.445186 
L 178.891274 -186.933899 
L 177.273911 -189.480782 
L 175.656548 -192.086227 
L 174.039184 -194.750294 
L 172.421821 -197.472683 
L 170.804458 -200.252701 
L 169.187094 -203.089248 
L 167.569731 -205.980781 
L 165.952368 -208.925302 
L 164.335004 -211.920333 
L 162.717641 -214.9629 
L 161.100278 -218.049519 
L 159.482915 -221.176185 
L 157.865551 -224.338361 
L 156.248188 -227.530977 
L 154.630825 -230.748426 
L 153.013461 -233.984565 
L 151.396098 -237.232725 
L 149.778735 -240.485722 
L 148.161372 -243.735867 
L 146.544008 -246.974989 
L 144.926645 -250.194457 
L 143.309282 -253.385209 
L 141.691918 -256.537781 
L 140.074555 -259.642346 
L 138.457192 -262.688756 
L 136.839829 -265.666579 
L 135.222465 -268.565154 
L 133.605102 -271.373642 
L 131.987739 -274.081075 
L 130.370375 -276.676419 
L 128.753012 -279.148632 
L 127.135649 -281.486728 
L 125.518285 -283.679837 
L 123.900922 -285.717275 
L 122.283559 -287.588604 
L 120.666196 -289.283707 
L 119.048832 -290.792843 
L 117.431469 -292.10672 
L 115.814106 -293.216557 
L 114.196742 -294.114143 
L 112.579379 -294.791899 
L 110.962016 -295.242933 
L 109.344653 -295.461094 
L 107.727289 -295.441019 
L 106.109926 -295.178178 
L 104.492563 -294.668914 
L 102.875199 -293.910478 
L 101.257836 -292.901053 
L 99.640473 -291.639781 
L 98.02311 -290.126777 
L 96.405746 -288.36314 
L 94.788383 -286.350954 
L 93.17102 -284.093287 
L 91.553656 -281.59418 
L 89.936293 -278.858629 
L 88.31893 -275.892563 
L 86.701566 -272.702815 
L 85.084203 -269.297085 
L 83.46684 -265.6839 
L 81.849477 -261.872565 
L 80.232113 -257.873113 
L 78.61475 -253.696247 
L 76.997387 -249.353279 
L 75.380023 -244.856066 
L 73.76266 -240.216945 
L 72.145297 -235.448657 
z
"/>
    </defs>
    <g clip-path="url(#p417ed1fe4a)">
     <use xlink:href="#m284f21e164" x="0" y="315.333094" style="fill: #3b528b; fill-opacity: 0.7"/>
    </g>
   </g>
   <g id="patch_3">
    <path d="M 53.222031 273.312 
L 53.222031 7.2 
" style="fill: none; stroke: #cccccc; stroke-width: 1.25; stroke-linejoin: miter; stroke-linecap: square"/>
   </g>
   <g id="patch_4">
    <path d="M 410.342031 273.312 
L 410.342031 7.2 
" style="fill: none; stroke: #cccccc; stroke-width: 1.25; stroke-linejoin: miter; stroke-linecap: square"/>
   </g>
   <g id="patch_5">
    <path d="M 53.222031 273.312 
L 410.342031 273.312 
" style="fill: none; stroke: #cccccc; stroke-width: 1.25; stroke-linejoin: miter; stroke-linecap: square"/>
   </g>
   <g id="patch_6">
    <path d="M 53.222031 7.2 
L 410.342031 7.2 
" style="fill: none; stroke: #cccccc; stroke-width: 1.25; stroke-linejoin: miter; stroke-linecap: square"/>
   </g>
   <g id="legend_1">
    <g id="patch_7">
     <path d="M 277.739531 79.440781 
L 402.642031 79.440781 
Q 404.842031 79.440781 404.842031 77.240781 
L 404.842031 14.9 
Q 404.842031 12.7 402.642031 12.7 
L 277.739531 12.7 
Q 275.539531 12.7 275.539531 14.9 
L 275.539531 77.240781 
Q 275.539531 79.440781 277.739531 79.440781 
z
" style="fill: #ffffff; opacity: 0.8; stroke: #cccccc; stroke-linejoin: miter"/>
    </g>
    <g id="text_17">
     <!-- Prey reward difference -->
     <g style="fill: #262626" transform="translate(279.939531 25.835625) scale(0.12 -0.12)">
      <defs>
       <path id="ArialMT-50" d="M 494 0 
L 494 4581 
L 2222 4581 
Q 2678 4581 2919 4538 
Q 3256 4481 3484 4323 
Q 3713 4166 3852 3881 
Q 3991 3597 3991 3256 
Q 3991 2672 3619 2267 
Q 3247 1863 2275 1863 
L 1100 1863 
L 1100 0 
L 494 0 
z
M 1100 2403 
L 2284 2403 
Q 2872 2403 3119 2622 
Q 3366 2841 3366 3238 
Q 3366 3525 3220 3729 
Q 3075 3934 2838 4000 
Q 2684 4041 2272 4041 
L 1100 4041 
L 1100 2403 
z
" transform="scale(0.015625)"/>
       <path id="ArialMT-77" d="M 1034 0 
L 19 3319 
L 600 3319 
L 1128 1403 
L 1325 691 
Q 1338 744 1497 1375 
L 2025 3319 
L 2603 3319 
L 3100 1394 
L 3266 759 
L 3456 1400 
L 4025 3319 
L 4572 3319 
L 3534 0 
L 2950 0 
L 2422 1988 
L 2294 2553 
L 1622 0 
L 1034 0 
z
" transform="scale(0.015625)"/>
       <path id="ArialMT-64" d="M 2575 0 
L 2575 419 
Q 2259 -75 1647 -75 
Q 1250 -75 917 144 
Q 584 363 401 755 
Q 219 1147 219 1656 
Q 219 2153 384 2558 
Q 550 2963 881 3178 
Q 1213 3394 1622 3394 
Q 1922 3394 2156 3267 
Q 2391 3141 2538 2938 
L 2538 4581 
L 3097 4581 
L 3097 0 
L 2575 0 
z
M 797 1656 
Q 797 1019 1065 703 
Q 1334 388 1700 388 
Q 2069 388 2326 689 
Q 2584 991 2584 1609 
Q 2584 2291 2321 2609 
Q 2059 2928 1675 2928 
Q 1300 2928 1048 2622 
Q 797 2316 797 1656 
z
" transform="scale(0.015625)"/>
       <path id="ArialMT-66" d="M 556 0 
L 556 2881 
L 59 2881 
L 59 3319 
L 556 3319 
L 556 3672 
Q 556 4006 616 4169 
Q 697 4388 901 4523 
Q 1106 4659 1475 4659 
Q 1713 4659 2000 4603 
L 1916 4113 
Q 1741 4144 1584 4144 
Q 1328 4144 1222 4034 
Q 1116 3925 1116 3625 
L 1116 3319 
L 1763 3319 
L 1763 2881 
L 1116 2881 
L 1116 0 
L 556 0 
z
" transform="scale(0.015625)"/>
       <path id="ArialMT-63" d="M 2588 1216 
L 3141 1144 
Q 3050 572 2676 248 
Q 2303 -75 1759 -75 
Q 1078 -75 664 370 
Q 250 816 250 1647 
Q 250 2184 428 2587 
Q 606 2991 970 3192 
Q 1334 3394 1763 3394 
Q 2303 3394 2647 3120 
Q 2991 2847 3088 2344 
L 2541 2259 
Q 2463 2594 2264 2762 
Q 2066 2931 1784 2931 
Q 1359 2931 1093 2626 
Q 828 2322 828 1663 
Q 828 994 1084 691 
Q 1341 388 1753 388 
Q 2084 388 2306 591 
Q 2528 794 2588 1216 
z
" transform="scale(0.015625)"/>
      </defs>
      <use xlink:href="#ArialMT-50"/>
      <use xlink:href="#ArialMT-72" x="66.699219"/>
      <use xlink:href="#ArialMT-65" x="100"/>
      <use xlink:href="#ArialMT-79" x="155.615234"/>
      <use xlink:href="#ArialMT-20" x="205.615234"/>
      <use xlink:href="#ArialMT-72" x="233.398438"/>
      <use xlink:href="#ArialMT-65" x="266.699219"/>
      <use xlink:href="#ArialMT-77" x="322.314453"/>
      <use xlink:href="#ArialMT-61" x="394.53125"/>
      <use xlink:href="#ArialMT-72" x="450.146484"/>
      <use xlink:href="#ArialMT-64" x="483.447266"/>
      <use xlink:href="#ArialMT-20" x="539.0625"/>
      <use xlink:href="#ArialMT-64" x="566.845703"/>
      <use xlink:href="#ArialMT-69" x="622.460938"/>
      <use xlink:href="#ArialMT-66" x="644.677734"/>
      <use xlink:href="#ArialMT-66" x="670.710938"/>
      <use xlink:href="#ArialMT-65" x="698.494141"/>
      <use xlink:href="#ArialMT-72" x="754.109375"/>
      <use xlink:href="#ArialMT-65" x="787.410156"/>
      <use xlink:href="#ArialMT-6e" x="843.025391"/>
      <use xlink:href="#ArialMT-63" x="898.640625"/>
      <use xlink:href="#ArialMT-65" x="948.640625"/>
     </g>
    </g>
    <g id="patch_8">
     <path d="M 321.732266 41.734844 
L 343.732266 41.734844 
L 343.732266 34.034844 
L 321.732266 34.034844 
z
" style="fill: #3b528b; fill-opacity: 0.7"/>
    </g>
    <g id="text_18">
     <!-- 0 -->
     <g style="fill: #262626" transform="translate(352.532266 41.734844) scale(0.11 -0.11)">
      <use xlink:href="#ArialMT-30"/>
     </g>
    </g>
    <g id="patch_9">
     <path d="M 321.732266 57.294687 
L 343.732266 57.294687 
L 343.732266 49.594687 
L 321.732266 49.594687 
z
" style="fill: #21918c; fill-opacity: 0.7"/>
    </g>
    <g id="text_19">
     <!-- 2 -->
     <g style="fill: #262626" transform="translate(352.532266 57.294687) scale(0.11 -0.11)">
      <use xlink:href="#ArialMT-32"/>
     </g>
    </g>
    <g id="patch_10">
     <path d="M 321.732266 72.854531 
L 343.732266 72.854531 
L 343.732266 65.154531 
L 321.732266 65.154531 
z
" style="fill: #5ec962; fill-opacity: 0.7"/>
    </g>
    <g id="text_20">
     <!-- 4 -->
     <g style="fill: #262626" transform="translate(352.532266 72.854531) scale(0.11 -0.11)">
      <use xlink:href="#ArialMT-34"/>
     </g>
    </g>
   </g>
  </g>
 </g>
 <defs>
  <clipPath id="p417ed1fe4a">
   <rect x="53.222031" y="7.2" width="357.12" height="266.112"/>
  </clipPath>
 </defs>
</svg>
